<?xml version="1.0" encoding="UTF-8"?>
<svg id="_レイヤー_2" data-name="レイヤー 2" xmlns="http://www.w3.org/2000/svg" viewBox="0 0 304.9 128.92">
  <defs>
    <style>
      .cls-1 {
        fill: #fff;
      }
    </style>
  </defs>
  <g id="_レイヤー_1-2" data-name="レイヤー 1">
    <g>
      <path class="cls-1" d="M41.16,79.17c4.97-4.07,8.62-7.73,10.96-10.97,3.47-4.71,5.9-8.52,7.29-11.42.7-1.3,1.47-1.98,2.29-2.02,1.16-.07,1.77.46,1.84,1.57.07,1.31-.72,3.54-2.39,6.69-5.19,9.62-13.3,18.22-24.33,25.79-4.69,11.44-8.19,19.21-10.48,23.33-6.09,10.84-12.08,16.42-17.99,16.76-3.1.17-5.39-.91-6.89-3.25-.85-1.36-1.33-2.94-1.43-4.73-.43-7.6,4.05-15.17,13.43-22.69,1.49-1.25,7.55-5.24,18.19-11.96,1.87-4.62,3.32-8.25,4.34-10.88-4.78,5.62-8.84,8.52-12.18,8.71-2.08.12-3.76-.85-5.05-2.92-.81-1.36-1.25-2.79-1.34-4.3-.2-3.49.98-8.04,3.52-13.68,3.62-8.12,8.15-14.64,13.61-19.57,4.58-4.1,8.7-6.25,12.38-6.46,1.89-.11,3.55.5,4.99,1.83.97.87,1.51,2.2,1.61,3.99.13,2.23-.47,5.03-1.78,8.41,1.17,1,1.78,1.77,1.81,2.3.02.34-.2.84-.64,1.49-1.21,1.87-3.12,5.35-5.75,10.45-2.32,4.46-4.33,8.96-6.01,13.53ZM27.77,94.94c-6.24,3.07-11.64,7.51-16.22,13.31-2.13,2.69-3.6,5.5-4.41,8.41-.24.89-.34,1.62-.31,2.2.04.63.21,1.18.53,1.65.58.84,1.36,1.23,2.33,1.18,3-.17,6.33-3.59,9.98-10.26,3.17-5.77,5.87-11.26,8.1-16.49ZM39.7,62.43c-.72-.69-1.09-1.18-1.1-1.47-.03-.44.31-1.01.99-1.73,2.29-2.46,4.11-4.99,5.47-7.6,1.1-2.05,1.62-3.64,1.55-4.75-.07-1.31-.72-1.93-1.93-1.86-2.08.12-4.95,2.27-8.59,6.46-4.33,4.96-7.62,10.41-9.85,16.37-1.09,2.98-1.6,5.24-1.51,6.79.05.87.28,1.51.69,1.93.41.41.98.6,1.71.56,1.69-.1,3.97-1.97,6.82-5.63,1.81-2.34,3.33-4.61,4.57-6.82.84-1.46,1.23-2.21,1.18-2.25Z"/>
      <path class="cls-1" d="M81.75,39.5c.82-.05,1.52.23,2.09.83.42.51.64,1.03.67,1.56.05.87-.57,2.36-1.86,4.48-4.59,8.08-7.81,14.7-9.66,19.85-1.98,5.31-3.69,10.75-5.12,16.32-.64,2.47-1.78,3.74-3.42,3.84-.97.05-1.77-.29-2.39-1.03-.57-.6-.87-1.26-.91-1.99-.08-1.45,1.19-6.38,3.82-14.79,2.05-6.62,5.57-14.01,10.55-22.16,1.6-2.66,2.81-4.46,3.63-5.38.82-.97,1.69-1.48,2.61-1.53ZM94.02,11.77c2.18-.12,3.33.93,3.46,3.15.12,2.03-.82,4.35-2.81,6.94-1.9,2.49-3.79,3.79-5.68,3.89-.92.05-1.69-.24-2.31-.89-.62-.6-.95-1.36-1-2.28-.13-2.32,1.01-4.87,3.43-7.62,1.78-2.04,3.42-3.11,4.92-3.19Z"/>
      <path class="cls-1" d="M96.82,57.29c.6-.62,1.17-1.23,1.72-1.85,9.56-10.45,16.06-15.77,19.5-15.97,1.89-.11,2.89.88,3.01,2.96.08,1.45-.67,3.22-2.25,5.3-8.64,11.32-12.72,21.1-12.25,29.33.15,2.66,1.02,5.16,2.61,7.5.74,1.08,1.13,1.93,1.17,2.56.03.58-.23,1.15-.78,1.72-.59.71-1.32,1.1-2.19,1.14-1.99.11-3.73-1.05-5.22-3.49-1.44-2.3-2.26-5.14-2.45-8.53-.37-6.54,1.69-13.91,6.18-22.13-6.35,4.58-12.05,12.39-17.11,23.41-1.31,2.65-2.78,4.02-4.43,4.11-.82.05-1.52-.21-2.08-.76-.72-.64-1.1-1.49-1.17-2.56-.15-2.61,2.44-9.63,7.77-21.06,2.86-6.18,5.12-10.68,6.81-13.5,1.69-2.77,3.19-4.19,4.49-4.26.63-.04,1.25.22,1.87.77.72.64,1.1,1.39,1.15,2.27.06,1.07-.56,2.63-1.85,4.7-1.87,3.07-3.36,5.85-4.48,8.34Z"/>
      <path class="cls-1" d="M134.19,55.9c3.83-4.49,7.22-8.04,10.18-10.63,4.49-3.9,7.54-5.89,9.13-5.98.77-.04,1.47.21,2.08.76.56.5.86,1.07.9,1.7.05.92-.71,2.47-2.29,4.65-2.43,3.44-4.08,6.35-4.97,8.73,10.68-12.02,18.11-18.15,22.27-18.38.87-.05,1.64.17,2.3.67.71.54,1.09,1.25,1.14,2.12.08,1.36-.87,3.16-2.83,5.41-8.61,9.96-12.75,17.97-12.41,24.02.14,2.47.68,4.21,1.61,5.23l2.02,2.29c.41.41.64.96.68,1.64.04.78-.23,1.52-.82,2.23-.68.82-1.48,1.25-2.4,1.3-1.6.09-3.13-.84-4.6-2.8-1.78-2.33-2.77-5.14-2.96-8.43-.25-4.41.76-8.93,3.02-13.58.78-1.65,2.11-3.86,4-6.64-3.94,3.33-7.89,7.83-11.84,13.49-2.7,3.84-5.08,8.11-7.14,12.79-.99,2.24-2.24,3.41-3.74,3.49-1.65.09-2.52-.78-2.62-2.62-.11-1.98,1.01-6.15,3.37-12.5,1.35-3.62,3.05-7.46,5.1-11.51-7.92,6.86-13.65,15.88-17.19,27.06-.88,2.48-2.17,3.77-3.86,3.86-.77.04-1.42-.21-1.94-.76-.56-.55-.87-1.24-.92-2.06-.16-2.86,1.14-8.1,3.92-15.74,2.89-8.08,6.27-15.39,10.12-21.92,2.66-4.57,4.78-6.9,6.38-6.99,1.45-.08,2.22.65,2.31,2.2.04.68-.76,2.42-2.4,5.24-2.86,5.26-4.73,9.16-5.6,11.68Z"/>
      <path class="cls-1" d="M192.42,33.22c.82-.05,1.52.23,2.09.83.42.51.64,1.03.67,1.56.05.87-.57,2.36-1.86,4.48-4.59,8.08-7.81,14.7-9.66,19.85-1.98,5.31-3.69,10.75-5.12,16.32-.64,2.47-1.78,3.74-3.42,3.84-.97.06-1.77-.29-2.39-1.03-.57-.6-.87-1.26-.91-1.99-.08-1.45,1.19-6.38,3.83-14.79,2.05-6.62,5.57-14.01,10.55-22.16,1.6-2.66,2.81-4.46,3.63-5.38.82-.97,1.69-1.48,2.61-1.53ZM204.7,5.49c2.18-.12,3.33.93,3.46,3.16.12,2.03-.82,4.35-2.81,6.94-1.9,2.49-3.79,3.79-5.68,3.89-.92.05-1.69-.24-2.31-.89-.62-.6-.95-1.36-1-2.28-.13-2.32,1.01-4.87,3.43-7.62,1.78-2.04,3.42-3.11,4.92-3.19Z"/>
      <path class="cls-1" d="M219.4,28.41c-2.87,5.07-5.46,10.7-7.78,16.91-3.34,8.83-4.88,15.38-4.64,19.64.07,1.21.38,2.12.92,2.72.54.6,1.32.87,2.34.81,2.42-.14,5.22-2.58,8.4-7.33,2.02-2.93,3.79-5.85,5.33-8.75.83-1.65,1.78-2.5,2.84-2.57.63-.04,1.17.15,1.63.56.41.41.63.84.66,1.27.1,1.79-2.02,5.92-6.36,12.38-5.19,7.78-10.12,11.79-14.76,12.06-2.47.14-4.59-.88-6.37-3.06-1.1-1.4-1.72-3.42-1.87-6.09-.33-5.86.97-12.78,3.92-20.77.71-1.98,2.72-6.78,6.03-14.4-1.29.41-2.27.64-2.95.68-1.02.06-1.93-.13-2.73-.57-1.1-.62-1.68-1.43-1.74-2.45-.07-1.21.58-2.22,1.94-3.02.38-.21,2.15-.63,5.32-1.25,1.15-.26,2.82-.82,5-1.67,1.52-3.15,4.05-7.44,7.58-12.89,1.96-3.03,3.33-5,4.11-5.92,1.09-1.28,2.08-1.94,2.95-1.99.63-.04,1.28.27,1.95.91.62.6.94,1.21.98,1.84.07,1.26-1.14,3.83-3.64,7.71-1.65,2.52-2.87,4.56-3.66,6.11,5.29-1.76,9.1-2.7,11.42-2.83,2.66-.15,4.06.89,4.18,3.11.06,1.12-.35,1.96-1.24,2.55-.47.32-1.71.63-3.74.94-.83,0-4.43,1.13-10.81,3.38-1.76.63-3.5,1.29-5.21,1.97Z"/>
      <path class="cls-1" d="M236.66,60.37l.07,1.31c.06,1.07.38,1.97.95,2.71,1.31,1.72,3.35,2.51,6.11,2.35,6.05-.34,12.78-5.39,20.2-15.13,1.31-1.68,2.45-2.54,3.42-2.6.53-.03,1.03.21,1.5.72.31.37.48.73.5,1.07.11,1.89-2.04,5.21-6.43,9.98-3.43,3.74-7.14,6.84-11.13,9.3-3.99,2.46-7.75,3.79-11.29,3.99-3.63.21-6.56-.89-8.78-3.29-1.5-1.66-2.34-4-2.51-7-.46-8.18,2.93-16.41,10.18-24.69,5.88-6.74,11.15-10.25,15.8-10.51,1.26-.07,2.42.25,3.48.97,1.32.95,2.02,2.24,2.12,3.89.15,2.57-.86,5.78-3.02,9.64-4.45,8.02-11.51,13.79-21.17,17.3ZM237.93,54.61c3.32-1.35,5.91-2.81,7.77-4.37,3.24-2.81,5.76-5.91,7.56-9.32.66-1.2.96-2.26.91-3.18-.05-.97-.54-1.43-1.46-1.38-1.26.07-3,1.12-5.21,3.14-3.97,3.58-7.16,8.62-9.56,15.11Z"/>
      <path class="cls-1" d="M289.16,27.74c.82-.05,1.52.23,2.09.83.42.51.64,1.03.67,1.56.05.87-.57,2.36-1.86,4.48-4.59,8.08-7.81,14.7-9.66,19.85-1.98,5.31-3.69,10.75-5.12,16.32-.64,2.47-1.78,3.74-3.43,3.84-.97.05-1.76-.29-2.39-1.03-.57-.6-.87-1.26-.91-1.99-.08-1.45,1.19-6.38,3.83-14.79,2.05-6.62,5.57-14.01,10.55-22.16,1.6-2.66,2.81-4.46,3.63-5.38.82-.97,1.69-1.48,2.61-1.53ZM301.43,0c2.18-.12,3.33.93,3.46,3.16.12,2.03-.82,4.35-2.81,6.94-1.9,2.49-3.79,3.78-5.68,3.89-.92.05-1.69-.24-2.31-.89-.62-.6-.95-1.35-1-2.27-.13-2.32,1.01-4.87,3.43-7.63,1.78-2.04,3.42-3.11,4.92-3.19Z"/>
    </g>
  </g>
</svg>