<?xml version="1.0" standalone="no"?>
<!DOCTYPE svg PUBLIC "-//W3C//DTD SVG 20010904//EN"
 "http://www.w3.org/TR/2001/REC-SVG-20010904/DTD/svg10.dtd">
<svg version="1.0" xmlns="http://www.w3.org/2000/svg"
 width="408.000000pt" height="331.000000pt" viewBox="0 0 408.000000 331.000000"
 preserveAspectRatio="xMidYMid meet">

<g transform="translate(0.000000,331.000000) scale(0.100000,-0.100000)"
fill="#000000" stroke="none">
<path d="M1202 2623 c-44 -22 -65 -55 -65 -104 0 -52 28 -81 120 -129 61 -31
68 -39 71 -68 3 -27 -1 -34 -25 -43 -32 -12 -96 2 -124 28 -15 12 -19 11 -38
-13 -25 -31 -22 -38 27 -63 54 -27 95 -34 140 -22 55 15 90 45 103 91 10 32 9
44 -7 77 -16 31 -33 45 -99 78 -73 37 -80 43 -83 73 -3 27 1 34 23 42 29 11
69 4 99 -16 17 -11 22 -10 39 13 22 28 19 32 -40 59 -43 19 -100 17 -141 -3z"/>
<path d="M1593 2621 c-101 -46 -140 -198 -82 -318 43 -90 173 -127 253 -73 40
28 43 36 20 61 -15 17 -18 17 -52 -2 -44 -23 -64 -24 -102 -4 -74 38 -89 188
-25 255 38 39 69 45 117 22 l39 -20 15 24 c19 28 12 42 -32 60 -46 19 -101 17
-151 -5z"/>
<path d="M2364 2629 c-122 -35 -156 -269 -55 -370 81 -82 204 -71 266 23 79
119 37 304 -78 347 -33 13 -89 13 -133 0z m128 -76 c44 -39 51 -187 12 -240
-46 -61 -122 -51 -155 21 -38 84 -14 206 45 232 35 15 72 10 98 -13z"/>
<path d="M1870 2420 l0 -210 40 0 40 0 0 80 0 80 33 0 c32 0 36 -5 77 -80 l43
-80 43 0 43 0 -45 79 c-24 43 -44 84 -44 90 0 5 9 15 20 21 44 24 65 115 37
170 -22 44 -70 60 -184 60 l-103 0 0 -210z m196 142 c6 -4 17 -18 23 -30 28
-52 -27 -107 -100 -100 l-34 3 -3 68 -3 67 53 0 c29 0 58 -4 64 -8z"/>
<path d="M2710 2420 l0 -210 125 0 125 0 0 35 0 35 -85 0 -85 0 0 175 0 175
-40 0 -40 0 0 -210z"/>
<path d="M3040 2420 l0 -210 125 0 125 0 0 35 0 35 -85 0 -85 0 0 175 0 175
-40 0 -40 0 0 -210z"/>
<path d="M2111 845 c-161 -50 -179 -259 -29 -336 106 -54 242 22 255 144 9 80
-51 170 -127 192 -49 13 -56 13 -99 0z"/>
</g>
</svg>
